<svg width="23" height="19" fill="none" xmlns="http://www.w3.org/2000/svg"><path d="M1.354 8.15s9.765-4.113 13.152-5.562C15.804 2.01 20.207.155 20.207.155s2.032-.81 1.863 1.159c-.056.811-.508 3.65-.96 6.72-.677 4.345-1.41 9.095-1.41 9.095s-.114 1.332-1.073 1.564c-.96.232-2.54-.81-2.823-1.043-.226-.173-4.233-2.78-5.7-4.055-.396-.347-.848-1.042.056-1.854a218.235 218.235 0 005.927-5.793c.677-.695 1.354-2.317-1.468-.347-4.008 2.838-7.96 5.503-7.96 5.503s-.902.58-2.596.058C2.37 10.641.394 9.946.394 9.946s-1.355-.87.96-1.796z" fill="#D72537"/></svg>