<svg width="17" height="17" fill="none" xmlns="http://www.w3.org/2000/svg"><path opacity=".5" d="M7.11 3.766l.46.823c.415.744.248 1.719-.405 2.372 0 0-.793.793.644 2.23 1.436 1.436 2.229.645 2.23.644.653-.653 1.628-.82 2.372-.405l.823.46c1.123.627 1.255 2.2.269 3.187-.593.593-1.32 1.055-2.122 1.085-1.352.051-3.647-.29-5.95-2.593C3.13 9.266 2.787 6.97 2.838 5.619c.03-.803.492-1.529 1.085-2.122.986-.986 2.56-.854 3.187.269z" fill="#D72537" fill-opacity=".6"/><path d="M9.392 1.332a.532.532 0 01.61-.44l.106.021c.06.014.145.035.25.065.21.061.504.162.856.324.706.323 1.645.89 2.62 1.864.974.975 1.54 1.914 1.864 2.62.162.352.262.645.324.856a4.086 4.086 0 01.08.322l.004.022a.542.542 0 01-.438.622.531.531 0 01-.609-.437 2.931 2.931 0 00-.058-.232 5.238 5.238 0 00-.269-.71c-.276-.603-.773-1.435-1.65-2.312-.876-.877-1.708-1.373-2.31-1.65a5.236 5.236 0 00-.711-.269 4.083 4.083 0 00-.225-.056.537.537 0 01-.444-.61z" fill="#D72537" fill-opacity=".6"/><path fill-rule="evenodd" clip-rule="evenodd" d="M9.552 3.775a.531.531 0 01.657-.365l-.146.511.146-.51h.005l.005.002.014.005a1.38 1.38 0 01.165.062c.104.045.245.113.418.216.347.205.82.546 1.376 1.102.556.556.897 1.029 1.102 1.376a3.665 3.665 0 01.264.542l.014.04.004.014.002.006v.003s.001.001-.51.147l.511-.146a.531.531 0 01-1.02.3l-.002-.008a2.608 2.608 0 00-.178-.357c-.157-.267-.443-.67-.938-1.166-.496-.496-.9-.781-1.166-.94a2.6 2.6 0 00-.357-.177L9.91 4.43a.531.531 0 01-.358-.655z" fill="#D72537" fill-opacity=".6"/></svg>