<svg width="28" height="29" fill="none" xmlns="http://www.w3.org/2000/svg"><path d="M27.44 1.136l-.64 4.672c-1.664-.128-2.88.213-3.648 1.024-.768.81-1.237 1.899-1.408 3.264-.17 1.365-.213 2.837-.128 4.416h5.824v13.504H16.496V11.952c0-3.925.981-6.87 2.944-8.832 2.005-1.963 4.672-2.624 8-1.984zm-16.256 0l-.64 4.672c-1.664-.128-2.88.213-3.648 1.024-.768.81-1.237 1.899-1.408 3.264-.17 1.365-.213 2.837-.128 4.416h5.824v13.504H.24V11.952c0-3.925.981-6.87 2.944-8.832 2.005-1.963 4.672-2.624 8-1.984z" fill="#E9E9E9"/></svg>