<?xml version="1.0" encoding="utf-8"?><svg viewBox="0 0 820 804" xmlns="http://www.w3.org/2000/svg" xmlns:xlink="http://www.w3.org/1999/xlink"><style>:root>svg{display:none}:root>svg:target{display:block}</style><svg fill="none" viewBox="0 0 10 7" id="arrow-down" xmlns="http://www.w3.org/2000/svg"><path d="m1 1.5 4 4 4-4" stroke="#000" stroke-opacity=".6" stroke-width="1.5" stroke-linecap="round" stroke-linejoin="round"/></svg><svg viewBox="0 0 32 32" id="burger-btn" xmlns="http://www.w3.org/2000/svg"><path d="M28 10H4a1 1 0 0 1 0-2h24a1 1 0 0 1 0 2Zm0 7H4a1 1 0 0 1 0-2h24a1 1 0 0 1 0 2Zm0 7H4a1 1 0 0 1 0-2h24a1 1 0 0 1 0 2Z" fill="#d72537" class="bfill-000000" data-name="Layer 2"/><path d="M0 0h32v32H0z" fill="none"/></svg><svg viewBox="0 0 24 24" xml:space="preserve" id="cross" xmlns="http://www.w3.org/2000/svg"><path d="M5.3 18.7c.2.2.4.3.7.3s.5-.1.7-.3l5.3-5.3 5.3 5.3c.2.2.5.3.7.3s.5-.1.7-.3c.4-.4.4-1 0-1.4L13.4 12l5.3-5.3c.4-.4.4-1 0-1.4s-1-.4-1.4 0L12 10.6 6.7 5.3c-.4-.4-1-.4-1.4 0s-.4 1 0 1.4l5.3 5.3-5.3 5.3c-.4.4-.4 1 0 1.4z" fill="#999" class="cfill-000000"/></svg><svg fill="none" viewBox="0 0 22 22" id="icon__check" xmlns="http://www.w3.org/2000/svg"><g clip-path="url(#da)"><circle cx="11" cy="11" r="11" fill="#D72537" fill-opacity=".08"/><path d="m15 8-5.5 6L7 11.273" stroke="#D72537" stroke-width="2" stroke-linecap="round" stroke-linejoin="round"/></g><defs><clipPath id="da"><path fill="#fff" d="M0 0h22v22H0z"/></clipPath></defs></svg><svg fill="none" viewBox="0 0 17 17" id="icon__clock" xmlns="http://www.w3.org/2000/svg"><path opacity=".5" d="M8.5 15.583a7.083 7.083 0 1 0 0-14.166 7.083 7.083 0 0 0 0 14.166Z" fill="#D72537" fill-opacity=".6"/><path fill-rule="evenodd" clip-rule="evenodd" d="M8.5 5.135c.293 0 .531.238.531.532V8.28l1.615 1.615a.531.531 0 1 1-.75.752L8.123 8.875A.531.531 0 0 1 7.97 8.5V5.667c0-.294.238-.532.531-.532Z" fill="#D72537" fill-opacity=".6"/></svg><svg fill="none" viewBox="0 0 28 28" id="icon__link-arrow" xmlns="http://www.w3.org/2000/svg"><path d="M19.833 19.833V8.167H8.167" stroke="#D72537" stroke-width="2" stroke-linejoin="round"/><path d="M19.126 7.46a1 1 0 0 1 1.415 1.414L19.126 7.46ZM7.46 19.126 19.126 7.46l1.415 1.414L8.874 20.54 7.46 19.126Z" fill="#D72537"/></svg><svg fill="none" viewBox="0 0 13 16" id="icon__location" xmlns="http://www.w3.org/2000/svg"><path opacity=".5" d="M12.167 6.583c0 4.25-5.667 8.5-5.667 8.5s-5.667-4.25-5.667-8.5a5.667 5.667 0 0 1 11.334 0Z" fill="#D72537" fill-opacity=".6"/></svg><svg fill="none" viewBox="0 0 17 17" id="icon__phone" xmlns="http://www.w3.org/2000/svg"><path opacity=".5" d="m7.11 3.766.46.823c.415.744.248 1.719-.405 2.372 0 0-.793.793.644 2.23 1.436 1.436 2.229.645 2.23.644.653-.653 1.628-.82 2.372-.405l.823.46c1.123.627 1.255 2.2.269 3.187-.593.593-1.32 1.055-2.122 1.085-1.352.051-3.647-.29-5.95-2.593C3.13 9.266 2.787 6.97 2.838 5.619c.03-.803.492-1.529 1.085-2.122.986-.986 2.56-.854 3.187.269Z" fill="#D72537" fill-opacity=".6"/><path d="M9.392 1.332a.532.532 0 0 1 .61-.44l.106.021c.06.014.145.035.25.065.21.061.504.162.856.324.706.323 1.645.89 2.62 1.864.974.975 1.54 1.914 1.864 2.62.162.352.262.645.324.856a4.086 4.086 0 0 1 .08.322l.004.022a.542.542 0 0 1-.438.622.531.531 0 0 1-.609-.437 2.931 2.931 0 0 0-.058-.232 5.238 5.238 0 0 0-.269-.71c-.276-.603-.773-1.435-1.65-2.312-.876-.877-1.708-1.373-2.31-1.65a5.236 5.236 0 0 0-.711-.269 4.083 4.083 0 0 0-.225-.056.537.537 0 0 1-.444-.61Z" fill="#D72537" fill-opacity=".6"/><path fill-rule="evenodd" clip-rule="evenodd" d="M9.552 3.775a.531.531 0 0 1 .657-.365l-.146.511.146-.51h.005l.005.002.014.005a1.38 1.38 0 0 1 .165.062c.104.045.245.113.418.216.347.205.82.546 1.376 1.102.556.556.897 1.029 1.102 1.376a3.665 3.665 0 0 1 .264.542l.014.04.004.014.002.006v.003s.001.001-.51.147l.511-.146a.531.531 0 0 1-1.02.3l-.002-.008a2.608 2.608 0 0 0-.178-.357c-.157-.267-.443-.67-.938-1.166-.496-.496-.9-.781-1.166-.94a2.6 2.6 0 0 0-.357-.177L9.91 4.43a.531.531 0 0 1-.358-.655Z" fill="#D72537" fill-opacity=".6"/></svg><svg fill="none" viewBox="0 0 21 24" id="icon__play" xmlns="http://www.w3.org/2000/svg"><path d="M19.5 9.402c2 1.155 2 4.041 0 5.196l-15 8.66C2.5 24.413 0 22.97 0 20.66V3.34C0 1.03 2.5-.413 4.5.742l15 8.66Z" fill="#D72537"/></svg><svg fill="none" viewBox="0 0 28 29" id="icon__quotes" xmlns="http://www.w3.org/2000/svg"><path d="m27.44 1.136-.64 4.672c-1.664-.128-2.88.213-3.648 1.024-.768.81-1.237 1.899-1.408 3.264-.17 1.365-.213 2.837-.128 4.416h5.824v13.504H16.496V11.952c0-3.925.981-6.87 2.944-8.832 2.005-1.963 4.672-2.624 8-1.984Zm-16.256 0-.64 4.672c-1.664-.128-2.88.213-3.648 1.024-.768.81-1.237 1.899-1.408 3.264-.17 1.365-.213 2.837-.128 4.416h5.824v13.504H.24V11.952c0-3.925.981-6.87 2.944-8.832 2.005-1.963 4.672-2.624 8-1.984Z" fill="#E9E9E9"/></svg><svg fill="none" viewBox="0 0 23 19" id="icon__tg" xmlns="http://www.w3.org/2000/svg"><path d="M1.354 8.15s9.765-4.113 13.152-5.562C15.804 2.01 20.207.155 20.207.155s2.032-.81 1.863 1.159c-.056.811-.508 3.65-.96 6.72-.677 4.345-1.41 9.095-1.41 9.095s-.114 1.332-1.073 1.564c-.96.232-2.54-.81-2.823-1.043-.226-.173-4.233-2.78-5.7-4.055-.396-.347-.848-1.042.056-1.854a218.235 218.235 0 0 0 5.927-5.793c.677-.695 1.354-2.317-1.468-.347-4.008 2.838-7.96 5.503-7.96 5.503s-.902.58-2.596.058C2.37 10.641.394 9.946.394 9.946s-1.355-.87.96-1.796Z" fill="#D72537"/></svg><svg fill="none" viewBox="0 0 24 25" id="icon__whpp" xmlns="http://www.w3.org/2000/svg"><path d="m0 24.111 1.722-6.402A11.84 11.84 0 0 1 4.919 2.505 11.891 11.891 0 0 1 20.447 3.51a11.844 11.844 0 0 1 1.206 15.488 11.895 11.895 0 0 1-15.186 3.388L0 24.112Zm6.78-4.121.4.237a9.613 9.613 0 0 0 11.626-1.413A9.577 9.577 0 0 0 20.41 7.232a9.595 9.595 0 0 0-4.634-4.091A9.614 9.614 0 0 0 4.46 6.147a9.573 9.573 0 0 0-1.984 5.85 9.463 9.463 0 0 0 1.403 4.967l.25.413-.962 3.574 3.613-.961Z" fill="#D72537"/></svg><svg fill="none" viewBox="0 0 820 464" id="vector-1" xmlns="http://www.w3.org/2000/svg"><path d="M88.541 28.1c-220.88-8.841 23.606 263.486 168.379 389.851 141.778 18.915 301.5 110 512.5-37 134-110-42.557-88.283-43-101C697.487 150.998 579.497-45.792 368.243 9.601 129.116 72.304 870.385 381.346 524.42 366.451 178.454 351.556 364.642 39.151 88.541 28.1Z" fill="#D9D9D9"/></svg><svg fill="none" viewBox="0 0 620 804" id="vector-2" xmlns="http://www.w3.org/2000/svg"><path d="M182.142 674.351c-290-162-169.833-448.167-73.5-571 142.617-219.136 172.572-51.704 169.287 149.405 105.613-173.241 420.614-233 254.213-112.905-221 159.5 47.035 333.542 86 620.5C638 906.594 372.333 650.26 266 457.594c-83.858 151 206.142 378.757-83.858 216.757Z" fill="#D9D9D9"/></svg></svg>